REM DIRINDEX 1\2,1\3,1\4,1\5
REM DIRNAME folder01,folder02,folder03,folder04,folder05
TITLE ""
FILE "168.mp3" MP3
  TRACK 01 AUDIO
    TITLE "0:"
    INDEX 01 00:00:00
  TRACK 02 AUDIO
    TITLE "2:cjc046_5023"
    INDEX 01 00:00:13
  TRACK 03 AUDIO
    TITLE "0:"
    INDEX 01 00:01:24
  TRACK 04 AUDIO
    TITLE "3:cjc046_5024"
    INDEX 01 00:01:42
  TRACK 05 AUDIO
    TITLE "0:"
    INDEX 01 00:02:47
  TRACK 06 AUDIO
    TITLE "4:cjc046_5025"
    INDEX 01 00:02:65
  TRACK 07 AUDIO
    TITLE "0:"
    INDEX 01 00:03:74
  TRACK 08 AUDIO
    TITLE "2:cjc046_5026"
    INDEX 01 00:05:09
  TRACK 09 AUDIO
    TITLE "0:"
    INDEX 01 00:06:14
  TRACK 10 AUDIO
    TITLE "3:cjc046_5027"
    INDEX 01 00:06:37
  TRACK 11 AUDIO
    TITLE "0:"
    INDEX 01 00:07:56
  TRACK 12 AUDIO
    TITLE "4:cjc046_5028"
    INDEX 01 00:07:64
  TRACK 13 AUDIO
    TITLE "0:"
    INDEX 01 00:08:72
  TRACK 14 AUDIO
    TITLE "2:cjc046_5029"
    INDEX 01 00:10:06
  TRACK 15 AUDIO
    TITLE "0:"
    INDEX 01 00:11:17
  TRACK 16 AUDIO
    TITLE "3:cjc046_5030"
    INDEX 01 00:11:39
  TRACK 17 AUDIO
    TITLE "0:"
    INDEX 01 00:12:42
  TRACK 18 AUDIO
    TITLE "4:cjc046_5031"
    INDEX 01 00:12:54
  TRACK 19 AUDIO
    TITLE "0:"
    INDEX 01 00:13:63
  TRACK 20 AUDIO
    TITLE "2:cjc046_5032"
    INDEX 01 00:14:70
  TRACK 21 AUDIO
    TITLE "0:"
    INDEX 01 00:15:72
  TRACK 22 AUDIO
    TITLE "3:cjc046_5033"
    INDEX 01 00:16:12
  TRACK 23 AUDIO
    TITLE "0:"
    INDEX 01 00:17:02
  TRACK 24 AUDIO
    TITLE "4:cjc046_5034"
    INDEX 01 00:17:23
  TRACK 25 AUDIO
    TITLE "0:"
    INDEX 01 00:18:23
  TRACK 26 AUDIO
    TITLE "2:cjc046_5035"
    INDEX 01 00:19:32
  TRACK 27 AUDIO
    TITLE "0:"
    INDEX 01 00:20:41
  TRACK 28 AUDIO
    TITLE "3:cjc046_5036"
    INDEX 01 00:20:65
  TRACK 29 AUDIO
    TITLE "0:"
    INDEX 01 00:21:57
  TRACK 30 AUDIO
    TITLE "4:cjc046_5037"
    INDEX 01 00:21:68
  TRACK 31 AUDIO
    TITLE "0:"
    INDEX 01 00:23:06
  TRACK 32 AUDIO
    TITLE "2:cjc046_5038"
    INDEX 01 00:24:14
  TRACK 33 AUDIO
    TITLE "0:"
    INDEX 01 00:25:17
  TRACK 34 AUDIO
    TITLE "3:cjc046_5039"
    INDEX 01 00:25:37
  TRACK 35 AUDIO
    TITLE "0:"
    INDEX 01 00:26:44
  TRACK 36 AUDIO
    TITLE "4:cjc046_5040"
    INDEX 01 00:26:62
  TRACK 37 AUDIO
    TITLE "0:"
    INDEX 01 00:27:65
  TRACK 38 AUDIO
    TITLE "2:cjc046_5041"
    INDEX 01 00:28:74
  TRACK 39 AUDIO
    TITLE "0:"
    INDEX 01 00:30:14
  TRACK 40 AUDIO
    TITLE "3:cjc046_5042"
    INDEX 01 00:30:34
  TRACK 41 AUDIO
    TITLE "0:"
    INDEX 01 00:31:65
  TRACK 42 AUDIO
    TITLE "4:cjc046_5043"
    INDEX 01 00:32:05
  TRACK 43 AUDIO
    TITLE "0:"
    INDEX 01 00:33:17
  TRACK 44 AUDIO
    TITLE "2:cjc046_5044"
    INDEX 01 00:34:28
  TRACK 45 AUDIO
    TITLE "0:"
    INDEX 01 00:35:29
  TRACK 46 AUDIO
    TITLE "3:cjc046_5045"
    INDEX 01 00:35:51
  TRACK 47 AUDIO
    TITLE "0:"
    INDEX 01 00:36:54
  TRACK 48 AUDIO
    TITLE "4:cjc046_5046"
    INDEX 01 00:36:70
  TRACK 49 AUDIO
    TITLE "0:"
    INDEX 01 00:38:00
  TRACK 50 AUDIO
    TITLE "2:cjc046_5047"
    INDEX 01 00:39:05
  TRACK 51 AUDIO
    TITLE "0:"
    INDEX 01 00:40:17
  TRACK 52 AUDIO
    TITLE "3:cjc046_5048"
    INDEX 01 00:40:36
  TRACK 53 AUDIO
    TITLE "0:"
    INDEX 01 00:41:53
  TRACK 54 AUDIO
    TITLE "4:cjc046_5049"
    INDEX 01 00:41:69
  TRACK 55 AUDIO
    TITLE "0:"
    INDEX 01 00:43:05
  TRACK 56 AUDIO
    TITLE "2:cjc046_5050"
    INDEX 01 00:44:14
  TRACK 57 AUDIO
    TITLE "0:"
    INDEX 01 00:45:26
  TRACK 58 AUDIO
    TITLE "3:cjc046_5051"
    INDEX 01 00:45:45
  TRACK 59 AUDIO
    TITLE "0:"
    INDEX 01 00:46:54
  TRACK 60 AUDIO
    TITLE "4:cjc046_5052"
    INDEX 01 00:46:74
  TRACK 61 AUDIO
    TITLE "0:"
    INDEX 01 00:48:12
  TRACK 62 AUDIO
    TITLE "2:cjc046_5053"
    INDEX 01 00:49:21
  TRACK 63 AUDIO
    TITLE "0:"
    INDEX 01 00:50:27
  TRACK 64 AUDIO
    TITLE "3:cjc046_5054"
    INDEX 01 00:50:46
  TRACK 65 AUDIO
    TITLE "0:"
    INDEX 01 00:52:00
  TRACK 66 AUDIO
    TITLE "4:cjc046_5055"
    INDEX 01 00:52:10
  TRACK 67 AUDIO
    TITLE "0:"
    INDEX 01 00:53:11
  TRACK 68 AUDIO
    TITLE "2:cjc046_5056"
    INDEX 01 00:54:23
  TRACK 69 AUDIO
    TITLE "0:"
    INDEX 01 00:55:26
  TRACK 70 AUDIO
    TITLE "3:cjc046_5057"
    INDEX 01 00:55:48
  TRACK 71 AUDIO
    TITLE "0:"
    INDEX 01 00:56:41
  TRACK 72 AUDIO
    TITLE "4:cjc046_5058"
    INDEX 01 00:56:63
  TRACK 73 AUDIO
    TITLE "0:"
    INDEX 01 00:57:66
  TRACK 74 AUDIO
    TITLE "2:cjc046_5059"
    INDEX 01 00:58:71
  TRACK 75 AUDIO
    TITLE "0:"
    INDEX 01 01:00:17
  TRACK 76 AUDIO
    TITLE "3:cjc046_5060"
    INDEX 01 01:00:35
  TRACK 77 AUDIO
    TITLE "0:"
    INDEX 01 01:02:14
  TRACK 78 AUDIO
    TITLE "4:cjc046_5061"
    INDEX 01 01:02:26
  TRACK 79 AUDIO
    TITLE "0:"
    INDEX 01 01:03:47
  TRACK 80 AUDIO
    TITLE "2:cjc046_5062"
    INDEX 01 01:04:54
  TRACK 81 AUDIO
    TITLE "0:"
    INDEX 01 01:05:50
  TRACK 82 AUDIO
    TITLE "3:cjc046_5063"
    INDEX 01 01:05:73
  TRACK 83 AUDIO
    TITLE "0:"
    INDEX 01 01:07:23
  TRACK 84 AUDIO
    TITLE "4:cjc046_5064"
    INDEX 01 01:07:43
  TRACK 85 AUDIO
    TITLE "0:"
    INDEX 01 01:08:38
  TRACK 86 AUDIO
    TITLE "2:cjc046_5065"
    INDEX 01 01:09:50
  TRACK 87 AUDIO
    TITLE "0:"
    INDEX 01 01:10:59
  TRACK 88 AUDIO
    TITLE "3:cjc046_5066"
    INDEX 01 01:11:05
  TRACK 89 AUDIO
    TITLE "0:"
    INDEX 01 01:12:26
  TRACK 90 AUDIO
    TITLE "4:cjc046_5067"
    INDEX 01 01:12:44
  TRACK 91 AUDIO
    TITLE "0:"
    INDEX 01 01:13:53
  TRACK 92 AUDIO
    TITLE "2:cjc046_5068"
    INDEX 01 01:14:63
  TRACK 93 AUDIO
    TITLE "0:"
    INDEX 01 01:16:09
  TRACK 94 AUDIO
    TITLE "3:cjc046_5069"
    INDEX 01 01:16:24
  TRACK 95 AUDIO
    TITLE "0:"
    INDEX 01 01:18:29
  TRACK 96 AUDIO
    TITLE "4:cjc046_5070"
    INDEX 01 01:18:45
  TRACK 97 AUDIO
    TITLE "0:"
    INDEX 01 01:19:66
